<?xml version="1.0" encoding="utf-8"?>
<!-- Generator: Adobe Illustrator 28.1.0, SVG Export Plug-In . SVG Version: 6.00 Build 0)  -->
<svg version="1.1" id="Layer_1" xmlns="http://www.w3.org/2000/svg" xmlns:xlink="http://www.w3.org/1999/xlink" x="0px" y="0px"
	 viewBox="0 0 406.73 247.19" style="enable-background:new 0 0 406.73 247.19;" xml:space="preserve">
<style type="text/css">
	.st0{fill:#0C2340;}
	.st1{fill:#A7A8A9;}
</style>
<g>
	<path class="st0" d="M302.04,82.38l-21.1,36.92l-21.1-36.92h-22.31v82.38h22.15v-43.25l8.98,15.85c0.6,1.07,1.73,1.73,2.96,1.73
		h18.64c1.23,0,2.36-0.66,2.96-1.73l8.98-15.85v43.25h22.15V82.38H302.04z"/>
	<path class="st0" d="M138.64,82.38h-23.34l-32.91,82.38h25.19l25.29-22.78c1.05-1.08,0.29-2.89-1.22-2.89h-17.23l11.6-29.03
		l9.56,29.03l8.45,25.68h21.73L138.64,82.38z"/>
	<g>
		<path class="st1" d="M197.71,122.94l5.94,5.94c4.31,4.31,4.31,11.33,0,15.64c-0.01,0.01-0.02,0.01-0.02,0.02s-0.01,0.02-0.02,0.02
			c-4.31,4.31-11.33,4.31-15.64,0l-4.18-4.18l-12.44,12.44c-0.55,0.55-0.55,1.45,0,2l3.12,3.12c11.78,11.77,30.85,11.77,42.57,0.05
			c0.01-0.01,0.01-0.02,0.02-0.02c0.01-0.01,0.02-0.01,0.02-0.02c11.72-11.72,11.72-30.8-0.05-42.57l-5.89-5.89L197.71,122.94z"/>
		<path class="st0" d="M211.55,105.58l12.44-12.44c0.55-0.55,0.55-1.45,0-2l-3.12-3.12c-11.78-11.77-30.85-11.77-42.57-0.05
			c-0.01,0.01-0.01,0.02-0.02,0.02c-0.01,0.01-0.02,0.01-0.02,0.02c-11.72,11.72-11.72,30.8,0.05,42.57l5.89,5.89l13.44-13.44
			l-5.94-5.94c-4.31-4.31-4.31-11.33,0-15.64c0.01-0.01,0.02-0.01,0.02-0.02c0.01-0.01,0.01-0.02,0.02-0.02
			c4.31-4.31,11.33-4.31,15.64,0L211.55,105.58z"/>
	</g>
</g>
</svg>
