<svg width="1920" height="1080" viewBox="0 0 1920 1080" fill="none" xmlns="http://www.w3.org/2000/svg">
<mask id="mask0_635_24584" style="mask-type:alpha" maskUnits="userSpaceOnUse" x="0" y="0" width="1920" height="1080">
<rect width="1920" height="1080" fill="url(#paint0_linear_635_24584)"/>
</mask>
<g mask="url(#mask0_635_24584)">
<path d="M1918.5 900.818C1138.66 745.479 638.53 716.35 590 -112.909C87.2346 386.835 90.3959 641.77 143.5 1092.27H1918.5V900.818Z" fill="#1D7A9B"/>
<path d="M260 648C1754.47 1046.6 1785.54 496.534 1772.5 -380.455C2275.27 119.29 1985.1 634.407 1932 1084.91H-10.5C-187 916.909 -27 549.818 260 648Z" fill="url(#paint1_linear_635_24584)"/>
<path d="M-5 7.36353C211.23 736.222 442.777 905.346 912 1084.91C739.108 169.805 1156.86 218.854 1921.5 327.682V1084.91H912H-5V7.36353Z" fill="#007CA8" fill-opacity="0.8"/>
</g>
<defs>
<linearGradient id="paint0_linear_635_24584" x1="0" y1="0" x2="3079.38" y2="1306.32" gradientUnits="userSpaceOnUse">
<stop stop-color="#3B4778"/>
<stop offset="1" stop-color="#1976D2"/>
</linearGradient>
<linearGradient id="paint1_linear_635_24584" x1="1922" y1="1121.5" x2="1009.5" y2="-73" gradientUnits="userSpaceOnUse">
<stop stop-color="#00336D"/>
<stop offset="1" stop-color="#37B7C3"/>
</linearGradient>
</defs>
</svg>
